Ilo-Fraktur.ufo
<glyph name="period" format="2">
  <advance width="512.0"/>
  <unicode hex="002E"/>
  <outline>
    <contour>
      <point x="153.53364632237867" y="66.15769581251983" type="line"/>
      <point x="153.5336463223787" y="93.84230418748012" type="line"/>
      <point x="238.9652075496091" y="181.27386541471049" type="line"/>
      <point x="266.0347924503909" y="181.27386541471049" type="line"/>
      <point x="347.9374021909233" y="95.37125567417806" type="line"/>
      <point x="350.0" y="56.0" type="line"/>
      <point x="272.0" y="-14.0" type="line"/>
      <point x="245.0" y="-13.0" type="line"/>
    </contour>
  </outline>
</glyph>
<glyph name="colon" format="2">
  <advance width="400.0"/>
  <unicode hex="003A"/>
  <outline>
    <contour>
      <point x="264" y="416" type="line"/>
      <point x="218" y="462" type="line"/>
      <point x="188" y="462" type="line"/>
      <point x="142" y="416" type="line"/>
      <point x="142" y="386" type="line"/>
      <point x="188" y="340" type="line"/>
      <point x="218" y="340" type="line"/>
      <point x="264" y="386" type="line"/>
    </contour>
    <contour>
      <point x="264" y="116" type="line"/>
      <point x="218" y="162" type="line"/>
      <point x="188" y="162" type="line"/>
      <point x="142" y="116" type="line"/>
      <point x="142" y="86" type="line"/>
      <point x="188" y="40" type="line"/>
      <point x="218" y="40" type="line"/>
      <point x="264" y="86" type="line"/>
    </contour>
  </outline>
</glyph>
<glyph name="b" format="2">
  <advance width="400.0"/>
  <unicode hex="0062"/>
  <outline>
    <contour>
      <point x="150" y="122" type="line"/>
      <point x="150" y="699" type="line"/>
      <point x="100" y="699" type="line"/>
      <point x="50" y="649" type="line"/>
      <point x="50" y="72" type="line"/>
      <point x="160.22060385631323" y="0.21804376073951914" type="line"/>
      <point x="205" y="0" type="line"/>
      <point x="301.11963110652175" y="126.47458257857147"/>
      <point x="355.0951954923128" y="213.9983103775962"/>
      <point x="357" y="355" type="curve" smooth="yes"/>
      <point x="358.1349891651338" y="439.016700580342"/>
      <point x="336.0" y="512.0"/>
      <point x="253" y="512" type="curve"/>
      <point x="206.7398223876953" y="512.0588989257812" type="line"/>
      <point x="129" y="409" type="line"/>
      <point x="129" y="363" type="line"/>
      <point x="169.0" y="406.0" type="line" smooth="yes"/>
      <point x="185.28871390019725" y="423.5103674427125"/>
      <point x="194.0" y="434.0"/>
      <point x="221" y="434" type="curve" smooth="yes"/>
      <point x="247.0000000000004" y="434.0"/>
      <point x="261.0" y="392.0000000000067"/>
      <point x="261" y="295" type="curve" smooth="yes"/>
      <point x="261.0" y="186.0"/>
      <point x="249.20216286328764" y="131.96535712625723"/>
      <point x="212.9632339477539" y="86.81048583984375" type="curve"/>
      <point x="188.47949380714198" y="86.49528520930463" type="line"/>
    </contour>
  </outline>
</glyph>
<glyph name="e" format="2">
  <advance width="400.0"/>
  <unicode hex="0065"/>
  <outline>
    <contour>
      <point x="352" y="512" type="line"/>
      <point x="197" y="512" type="line"/>
      <point x="177" y="492" type="line" smooth="yes"/>
      <point x="133.8664863475576" y="448.8664863475576"/>
      <point x="43.21745572480876" y="335.9939252649832"/>
      <point x="42.0" y="214.0" type="curve" smooth="yes"/>
      <point x="41.0" y="113.79600672193158"/>
      <point x="87.56459779390681" y="-12.20607765111089"/>
      <point x="203" y="-12" type="curve" smooth="yes"/>
      <point x="257.02800847243947" y="-11.903548089516597"/>
      <point x="305.0" y="38.0"/>
      <point x="346" y="96" type="curve"/>
      <point x="323" y="120" type="line"/>
      <point x="288.0" y="87.0"/>
      <point x="253.01315703850435" y="65.84088930205462"/>
      <point x="218" y="66" type="curve" smooth="yes"/>
      <point x="184.7042156917303" y="66.15130642101487"/>
      <point x="133.84682179615407" y="148.49137222381134"/>
      <point x="133.0" y="276.0" type="curve" smooth="yes"/>
      <point x="132.71293942179537" y="319.2236163282565"/>
      <point x="149.0" y="402.0"/>
      <point x="179.5687026977539" y="442" type="curve"/>
      <point x="254" y="442" type="line"/>
      <point x="254" y="324" type="line"/>
      <point x="86" y="126" type="line"/>
      <point x="134" y="106" type="line"/>
      <point x="352" y="354" type="line"/>
    </contour>
  </outline>
</glyph>
<glyph name="f" format="2">
  <advance width="400.0"/>
  <unicode hex="0066"/>
  <outline>
    <contour>
      <point x="247" y="0" type="line"/>
      <point x="147" y="0" type="line"/>
      <point x="147" y="603" type="line"/>
      <point x="252" y="700" type="line"/>
      <point x="362.6749572753906" y="700.231086730957" type="line"/>
      <point x="363" y="663" type="line"/>
      <point x="310" y="629" type="line"/>
      <point x="247" y="629.6343307495117" type="line"/>
    </contour>
    <contour>
      <point x="368.0" y="512.0" type="line"/>
      <point x="368" y="482" type="line"/>
      <point x="328" y="442" type="line"/>
      <point x="50.0" y="442.0" type="line"/>
      <point x="50" y="472" type="line"/>
      <point x="90.0" y="512.0" type="line"/>
    </contour>
  </outline>
</glyph>
<glyph name="h" format="2">
  <advance width="400.0"/>
  <unicode hex="0068"/>
  <outline>
    <contour>
      <point x="160" y="0" type="line"/>
      <point x="160" y="276" type="line" smooth="yes"/>
      <point x="160.0" y="354.0"/>
      <point x="192.99999999999736" y="472.0"/>
      <point x="212" y="472" type="curve" smooth="yes"/>
      <point x="262.0" y="472.0"/>
      <point x="252.0" y="420.02831337068864"/>
      <point x="252" y="356" type="curve" smooth="yes"/>
      <point x="252" y="0" type="line"/>
      <point x="352" y="0" type="line"/>
      <point x="352" y="378" type="line" smooth="yes"/>
      <point x="352.0" y="442.51056180912605"/>
      <point x="350.000000000001" y="522.0"/>
      <point x="250" y="522" type="curve" smooth="yes"/>
      <point x="205.0" y="522.0"/>
      <point x="216" y="497"/>
      <point x="172" y="454" type="curve"/>
      <point x="160" y="454.16417694091797" type="line"/>
      <point x="160" y="699" type="line"/>
      <point x="110" y="699" type="line"/>
      <point x="60" y="649" type="line"/>
      <point x="60" y="0" type="line"/>
    </contour>
  </outline>
</glyph>
<glyph name="i" format="2">
  <advance width="400.0"/>
  <unicode hex="0069"/>
  <outline>
    <contour>
      <point x="264" y="654" type="line"/>
      <point x="218" y="700" type="line"/>
      <point x="188" y="700" type="line"/>
      <point x="142" y="654" type="line"/>
      <point x="142" y="624" type="line"/>
      <point x="188" y="578" type="line"/>
      <point x="218" y="578" type="line"/>
      <point x="264" y="624" type="line"/>
    </contour>
    <contour>
      <point x="356" y="40" type="line"/>
      <point x="356" y="70" type="line"/>
      <point x="265.0" y="70.0" type="line"/>
      <point x="264.23719024658203" y="512.1997299194336" type="line"/>
      <point x="126" y="512" type="line"/>
      <point x="86" y="472" type="line"/>
      <point x="86" y="442" type="line"/>
      <point x="174" y="442" type="line"/>
      <point x="175" y="70.41033172607422" type="line"/>
      <point x="96" y="70" type="line"/>
      <point x="56" y="30" type="line"/>
      <point x="56" y="0" type="line"/>
      <point x="316" y="0" type="line"/>
    </contour>
  </outline>
</glyph>
<glyph name="l" format="2">
  <advance width="400.0"/>
  <unicode hex="006C"/>
  <outline>
    <contour>
      <point x="349" y="40" type="line"/>
      <point x="349" y="70" type="line"/>
      <point x="258.0" y="70.0" type="line"/>
      <point x="257.23719024658203" y="700.1997299194336" type="line"/>
      <point x="129" y="700" type="line"/>
      <point x="89" y="660" type="line"/>
      <point x="89" y="630" type="line"/>
      <point x="167" y="630" type="line"/>
      <point x="168" y="70.41033172607422" type="line"/>
      <point x="109" y="70" type="line"/>
      <point x="69" y="30" type="line"/>
      <point x="69" y="0" type="line"/>
      <point x="309" y="0" type="line"/>
    </contour>
  </outline>
</glyph>
<glyph name="m" format="2">
  <advance width="400.0"/>
  <unicode hex="006D"/>
  <outline>
    <contour>
      <point x="94" y="444" type="line"/>
      <point x="151" y="443" type="line"/>
      <point x="175" y="476"/>
      <point x="172.9607993793029" y="522.0"/>
      <point x="249" y="522" type="curve" smooth="yes"/>
      <point x="329.0" y="522.0"/>
      <point x="350.0" y="442.51056180912605"/>
      <point x="350" y="378" type="curve" smooth="yes"/>
      <point x="350" y="128" type="line"/>
      <point x="260" y="128" type="line"/>
      <point x="260" y="370" type="line" smooth="yes"/>
      <point x="260.0" y="404.0283133706885"/>
      <point x="260.25699921617405" y="461.0"/>
      <point x="211" y="461" type="curve" smooth="yes"/>
      <point x="172.0" y="461.0"/>
      <point x="144" y="395"/>
      <point x="140" y="367" type="curve"/>
      <point x="94" y="379" type="line"/>
    </contour>
    <contour>
      <point x="140.0" y="128.0" type="line"/>
      <point x="50.0" y="128.0" type="line"/>
      <point x="50.0" y="462.0" type="line"/>
      <point x="100.0" y="512.0" type="line"/>
      <point x="140.0" y="512.0" type="line"/>
    </contour>
    <contour>
      <point x="350.0" y="70.0" type="line"/>
      <point x="350" y="40" type="line"/>
      <point x="310" y="0" type="line"/>
      <point x="30.0" y="0.0" type="line"/>
      <point x="30" y="30" type="line"/>
      <point x="70.0" y="70.0" type="line"/>
    </contour>
  </outline>
</glyph>
<glyph name="n" format="2">
  <advance width="400.0"/>
  <unicode hex="006E"/>
  <outline>
    <contour>
      <point x="94" y="444" type="line"/>
      <point x="151" y="443" type="line"/>
      <point x="175" y="476"/>
      <point x="172.9607993793029" y="522.0"/>
      <point x="249" y="522" type="curve" smooth="yes"/>
      <point x="329.0" y="522.0"/>
      <point x="350.0" y="442.51056180912605"/>
      <point x="350" y="378" type="curve" smooth="yes"/>
      <point x="350" y="0" type="line"/>
      <point x="260" y="0" type="line"/>
      <point x="260" y="370" type="line" smooth="yes"/>
      <point x="260.0" y="404.0283133706885"/>
      <point x="260.25699921617405" y="461.0"/>
      <point x="211" y="461" type="curve" smooth="yes"/>
      <point x="172.0" y="461.0"/>
      <point x="144" y="395"/>
      <point x="140" y="367" type="curve"/>
      <point x="94" y="379" type="line"/>
    </contour>
    <contour>
      <point x="140.0" y="0.0" type="line"/>
      <point x="50.0" y="0.0" type="line"/>
      <point x="50.0" y="462.0" type="line"/>
      <point x="100.0" y="512.0" type="line"/>
      <point x="140.0" y="512.0" type="line"/>
    </contour>
  </outline>
</glyph>
<glyph name="p" format="2">
  <advance width="400.0"/>
  <unicode hex="0070"/>
  <outline>
    <contour>
      <point x="113" y="364" type="curve"/>
      <point x="138" y="330" type="line"/>
      <point x="160" y="360"/>
      <point x="186" y="446"/>
      <point x="227" y="445" type="curve" smooth="yes"/>
      <point x="268" y="444"/>
      <point x="260.9767148398418" y="400.99621434045196"/>
      <point x="260" y="275" type="curve" smooth="yes"/>
      <point x="259.0" y="146.0"/>
      <point x="284.0417024858279" y="58.72030867890514"/>
      <point x="237" y="59" type="curve" smooth="yes"/>
      <point x="155.04977649571435" y="59.487243553373034"/>
      <point x="172.0" y="123.0"/>
      <point x="124" y="181" type="curve"/>
      <point x="124.0" y="118.0" type="line"/>
      <point x="184.0" y="19.0"/>
      <point x="179.03151862725326" y="-16.67078351928017"/>
      <point x="250" y="-13" type="curve" smooth="yes"/>
      <point x="308" y="-10"/>
      <point x="364" y="15"/>
      <point x="362" y="297" type="curve" smooth="yes"/>
      <point x="360.92191961425624" y="449.0093343932695"/>
      <point x="338.02246907382926" y="512.0"/>
      <point x="249" y="512" type="curve" smooth="yes"/>
      <point x="180" y="512"/>
      <point x="201.0" y="468.0"/>
    </contour>
    <contour>
      <point x="150.0" y="-200.0" type="line"/>
      <point x="150.0" y="512.0" type="line"/>
      <point x="118.0" y="512.0" type="line"/>
      <point x="48.0" y="462.0" type="line"/>
      <point x="49.0" y="-249.0" type="line"/>
      <point x="81.0" y="-249.0" type="line"/>
    </contour>
  </outline>
</glyph>
<glyph name="q" format="2">
  <advance width="400.0"/>
  <unicode hex="0071"/>
  <outline>
    <contour>
      <point x="299.0" y="364" type="curve"/>
      <point x="274.0" y="330" type="line"/>
      <point x="252.0" y="360"/>
      <point x="226.0" y="446"/>
      <point x="185.0" y="445" type="curve" smooth="yes"/>
      <point x="144.0" y="444"/>
      <point x="151.0232851601582" y="400.99621434045196"/>
      <point x="152.0" y="275" type="curve" smooth="yes"/>
      <point x="153.0" y="146.0"/>
      <point x="127.9582975141721" y="58.72030867890514"/>
      <point x="175.0" y="59" type="curve" smooth="yes"/>
      <point x="256.95022350428565" y="59.487243553373034"/>
      <point x="240.0" y="123.0"/>
      <point x="288.0" y="181" type="curve"/>
      <point x="288.0" y="118.0" type="line"/>
      <point x="228.0" y="19.0"/>
      <point x="232.96848137274674" y="-16.67078351928017"/>
      <point x="162.0" y="-13" type="curve" smooth="yes"/>
      <point x="104.0" y="-10"/>
      <point x="48.0" y="15"/>
      <point x="50.0" y="297" type="curve" smooth="yes"/>
      <point x="51.07808038574376" y="449.0093343932695"/>
      <point x="73.97753092617074" y="512.0"/>
      <point x="163.0" y="512" type="curve" smooth="yes"/>
      <point x="232.0" y="512"/>
      <point x="211.0" y="468.0"/>
    </contour>
    <contour>
      <point x="262.0" y="-200.0" type="line"/>
      <point x="262.0" y="512.0" type="line"/>
      <point x="294.0" y="512.0" type="line"/>
      <point x="364.0" y="462.0" type="line"/>
      <point x="363.0" y="-249.0" type="line"/>
      <point x="331.0" y="-249.0" type="line"/>
    </contour>
  </outline>
</glyph>
<glyph name="r" format="2">
  <advance width="400.0"/>
  <unicode hex="0072"/>
  <outline>
    <contour>
      <point x="150.0" y="130.0" type="line"/>
      <point x="194.38227553396092" y="85.61772446603908" type="line"/>
      <point x="218.5601068211987" y="86.54919441193397" type="line"/>
      <point x="269.73285179240236" y="126.26714820759764" type="line"/>
      <point x="300.0" y="95.0" type="line"/>
      <point x="169.753758045162" y="-11.614552198101904" type="line"/>
      <point x="135.0" y="-12.0" type="line"/>
      <point x="50.0" y="80.0" type="line"/>
      <point x="50.0" y="462.0" type="line"/>
      <point x="100.0" y="512.0" type="line"/>
      <point x="150.0" y="512.0" type="line"/>
    </contour>
    <contour>
      <point x="95" y="441" type="line"/>
      <point x="165" y="441" type="line"/>
      <point x="189" y="477" type="line" smooth="yes"/>
      <point x="199.48974153895267" y="492.73461230842634"/>
      <point x="238.38474118853105" y="522.7308607307098"/>
      <point x="287.4832194409121" y="522.8342508997478" type="curve" smooth="yes"/>
      <point x="324.52807156944493" y="522.91225888818"/>
      <point x="359.86863943088645" y="490.00165853235416"/>
      <point x="359" y="416" type="curve" smooth="yes"/>
      <point x="358.10655318253623" y="339.8849355079797"/>
      <point x="338.0" y="323.0"/>
      <point x="245" y="227" type="curve"/>
      <point x="217" y="257" type="line"/>
      <point x="264.0" y="329.0"/>
      <point x="270.0" y="360.0"/>
      <point x="270" y="396" type="curve" smooth="yes"/>
      <point x="270.0" y="425.086732"/>
      <point x="266.58158388965523" y="444.3097788086332"/>
      <point x="242.79618319658675" y="444.46983552144064" type="curve" smooth="yes"/>
      <point x="221.73098165245585" y="444.6115874707686"/>
      <point x="208.7155571933469" y="433.9826194312768"/>
      <point x="195.0" y="416.0" type="curve" smooth="yes"/>
      <point x="150" y="357" type="line"/>
      <point x="95.0" y="357.0" type="line"/>
    </contour>
  </outline>
</glyph>
<glyph name="s" format="2">
  <advance width="400.0"/>
  <unicode hex="0073"/>
  <outline>
    <contour>
      <point x="338" y="70" type="line"/>
      <point x="160" y="442" type="line"/>
      <point x="298" y="442" type="line"/>
      <point x="338" y="482" type="line"/>
      <point x="338" y="512" type="line"/>
      <point x="100" y="512" type="line"/>
      <point x="60" y="442" type="line"/>
      <point x="238" y="70" type="line"/>
      <point x="100" y="70" type="line"/>
      <point x="60" y="30" type="line"/>
      <point x="60" y="0" type="line"/>
      <point x="299.0" y="0.0" type="line"/>
    </contour>
  </outline>
</glyph>
<glyph name="t" format="2">
  <advance width="400.0"/>
  <unicode hex="0074"/>
  <outline>
    <contour>
      <point x="227.0" y="130.0" type="line"/>
      <point x="271.3822755339609" y="85.61772446603908" type="line"/>
      <point x="289.5601068211987" y="85.54919441193397" type="line"/>
      <point x="312.73285179240236" y="106.26714820759764" type="line"/>
      <point x="347.0" y="75.0" type="line"/>
      <point x="272.0" y="0.0" type="line"/>
      <point x="207.0" y="0.0" type="line"/>
      <point x="127.0" y="80.0" type="line"/>
      <point x="127.0" y="546.0" type="line"/>
      <point x="177.0" y="596.0" type="line"/>
      <point x="227.0" y="596.0" type="line"/>
    </contour>
    <contour>
      <point x="339.0" y="512.0" type="line"/>
      <point x="339" y="492" type="line"/>
      <point x="289" y="442" type="line"/>
      <point x="40.0" y="442.0" type="line"/>
      <point x="40" y="472" type="line"/>
      <point x="90.0" y="512.0" type="line"/>
    </contour>
  </outline>
</glyph>
<glyph name="u" format="2">
  <advance width="400.0"/>
  <unicode hex="0075"/>
  <outline>
    <contour>
      <point x="296.0" y="67.0" type="line"/>
      <point x="239.0" y="68.0" type="line"/>
      <point x="215.0" y="35.0"/>
      <point x="237.0392006206971" y="-11.0"/>
      <point x="161.0" y="-11.0" type="curve" smooth="yes"/>
      <point x="116.0" y="-11.0"/>
      <point x="60.0" y="28.489438190873443"/>
      <point x="60.0" y="93.0" type="curve" smooth="yes"/>
      <point x="60.0" y="461.0" type="line"/>
      <point x="110.0" y="511.0" type="line"/>
      <point x="150.0" y="511.0" type="line"/>
      <point x="149.0" y="101.0" type="line" smooth="yes"/>
      <point x="148.91700436058997" y="66.97178784315525"/>
      <point x="174.74300078382595" y="50.0"/>
      <point x="199.0" y="50.0" type="curve" smooth="yes"/>
      <point x="238.0" y="50.0"/>
      <point x="246.0" y="116.0"/>
      <point x="250.0" y="144.0" type="curve"/>
      <point x="296.0" y="132.0" type="line"/>
    </contour>
    <contour>
      <point x="250.0" y="461.0" type="line"/>
      <point x="300.0" y="511.0" type="line"/>
      <point x="340.0" y="511.0" type="line"/>
      <point x="340.0" y="49.0" type="line"/>
      <point x="290.0" y="-1.0" type="line"/>
      <point x="250.0" y="-1.0" type="line"/>
    </contour>
  </outline>
</glyph>
<glyph name="w" format="2">
  <advance width="400.0"/>
  <unicode hex="0077"/>
  <outline>
    <contour>
      <point x="296.0" y="67.0" type="line"/>
      <point x="239.0" y="68.0" type="line"/>
      <point x="215.0" y="35.0"/>
      <point x="237.0392006206971" y="-11.0"/>
      <point x="161.0" y="-11.0" type="curve" smooth="yes"/>
      <point x="116.0" y="-11.0"/>
      <point x="60.0" y="28.489438190873443"/>
      <point x="60.0" y="93.0" type="curve" smooth="yes"/>
      <point x="60.0" y="311.0" type="line"/>
      <point x="110.0" y="361.0" type="line"/>
      <point x="150.0" y="361.0" type="line"/>
      <point x="149.0" y="101.0" type="line" smooth="yes"/>
      <point x="148.86912283967436" y="66.97193831500329"/>
      <point x="174.74300078382595" y="50.0"/>
      <point x="199.0" y="50.0" type="curve" smooth="yes"/>
      <point x="238.0" y="50.0"/>
      <point x="246.0" y="116.0"/>
      <point x="250.0" y="144.0" type="curve"/>
      <point x="296.0" y="132.0" type="line"/>
    </contour>
    <contour>
      <point x="250.0" y="311.0" type="line"/>
      <point x="300.0" y="361.0" type="line"/>
      <point x="340.0" y="361.0" type="line"/>
      <point x="340.0" y="49.0" type="line"/>
      <point x="290.0" y="-1.0" type="line"/>
      <point x="250.0" y="-1.0" type="line"/>
    </contour>
    <contour>
      <point x="350.0" y="510.0" type="line"/>
      <point x="350" y="480" type="line"/>
      <point x="310" y="440" type="line"/>
      <point x="30.0" y="440.0" type="line"/>
      <point x="30" y="470" type="line"/>
      <point x="70.0" y="510.0" type="line"/>
    </contour>
  </outline>
</glyph>
<glyph name="x" format="2">
  <advance width="400.0"/>
  <unicode hex="0078"/>
  <outline>
    <contour>
      <point x="38" y="513" type="line"/>
      <point x="268" y="0" type="line"/>
      <point x="338" y="0" type="line"/>
      <point x="108" y="513" type="line"/>
    </contour>
    <contour>
      <point x="281" y="502" type="line"/>
      <point x="51" y="0" type="line"/>
      <point x="131" y="0" type="line"/>
      <point x="361" y="502" type="line"/>
    </contour>
  </outline>
</glyph>
<glyph name="y" format="2">
  <advance width="400.0"/>
  <unicode hex="0079"/>
  <outline>
    <contour>
      <point x="38" y="513" type="line"/>
      <point x="148" y="86" type="line"/>
      <point x="218" y="86" type="line"/>
      <point x="108" y="513" type="line"/>
    </contour>
    <contour>
      <point x="281" y="502" type="line"/>
      <point x="111" y="-220" type="line"/>
      <point x="191" y="-220" type="line"/>
      <point x="361" y="502" type="line"/>
    </contour>
  </outline>
</glyph>
<glyph name="z" format="2">
  <advance width="400.0"/>
  <unicode hex="007A"/>
  <outline>
    <contour>
      <point x="229" y="441" type="move"/>
      <point x="75" y="270" type="line"/>
      <point x="97" y="247" type="line"/>
      <point x="134" y="267"/>
      <point x="184.5835192459666" y="278.294265023563"/>
      <point x="226" y="277" type="curve" smooth="yes"/>
      <point x="258" y="276"/>
      <point x="272.68404568095616" y="180.0179969795413"/>
      <point x="273" y="155" type="curve" smooth="yes"/>
      <point x="274.2550218612465" y="55.62445346886133"/>
      <point x="227.0" y="8.0"/>
      <point x="80" y="-67" type="curve"/>
      <point x="95" y="-104" type="line"/>
      <point x="245.0" y="-23.0"/>
      <point x="368" y="25"/>
      <point x="368" y="191" type="curve" smooth="yes"/>
      <point x="368.0" y="249.257375"/>
      <point x="335.04187369655074" y="345.7633498957245"/>
      <point x="263.0" y="340.0" type="curve" smooth="yes"/>
      <point x="238.0" y="338.0"/>
      <point x="201.0" y="326.0"/>
      <point x="158" y="305" type="curve"/>
      <point x="330" y="485" type="line"/>
      <point x="311.25712653510533" y="512.1997299194336" type="line"/>
      <point x="115.0199362885233" y="512" type="line"/>
      <point x="43.0199362885233" y="432" type="line"/>
      <point x="71.0199362885233" y="407" type="line"/>
      <point x="104.81511756293736" y="442" type="line"/>
      <point x="230.0199362885233" y="442" type="line"/>
    </contour>
  </outline>
</glyph>
<glyph name="copyright" format="2">
  <advance width="600"/>
  <unicode hex="00A9"/>
  <outline>
    <contour>
      <point x="280.0" y="130.0" type="line"/>
      <point x="323.0" y="86.0" type="line"/>
      <point x="353.0" y="86.0" type="line"/>
      <point x="403.73285179240236" y="126.26714820759764" type="line"/>
      <point x="430.0" y="95.0" type="line"/>
      <point x="299.753758045162" y="-11.614552198101904" type="line"/>
      <point x="275.0" y="-12.0" type="line"/>
      <point x="190.0" y="80.0" type="line"/>
      <point x="190.0" y="462.0" type="line"/>
      <point x="240.0" y="512.0" type="line"/>
      <point x="280.0" y="512.0" type="line"/>
    </contour>
    <contour>
      <point x="225" y="441" type="line"/>
      <point x="295" y="441" type="line"/>
      <point x="329" y="477" type="line" smooth="yes"/>
      <point x="341.9844976518134" y="490.74829163133234"/>
      <point x="388.38474118853105" y="522.7308607307098"/>
      <point x="437.4832194409121" y="522.8342508997478" type="curve" smooth="yes"/>
      <point x="474.52807156944493" y="522.91225888818"/>
      <point x="529.8686394308864" y="490.00165853235416"/>
      <point x="529" y="416" type="curve" smooth="yes"/>
      <point x="528.1065531825362" y="339.8849355079797"/>
      <point x="488.0" y="313.0"/>
      <point x="395" y="217" type="curve"/>
      <point x="367" y="247" type="line"/>
      <point x="434.0" y="319.0"/>
      <point x="440.0" y="360.0"/>
      <point x="440" y="396" type="curve" smooth="yes"/>
      <point x="440.0" y="425.086732"/>
      <point x="416.58158388965523" y="444.3097788086332"/>
      <point x="392.79618319658675" y="444.46983552144064" type="curve" smooth="yes"/>
      <point x="371.73098165245585" y="444.6115874707686"/>
      <point x="350.4214320724255" y="432.5429907686019"/>
      <point x="335.0" y="416.0" type="curve" smooth="yes"/>
      <point x="280" y="357" type="line"/>
      <point x="225.0" y="357.0" type="line"/>
    </contour>
  </outline>
</glyph>
